<?xml version="1.0" encoding="utf-8"?>
<!-- Generator: Adobe Illustrator 15.1.0, SVG Export Plug-In . SVG Version: 6.00 Build 0)  -->
<!DOCTYPE svg PUBLIC "-//W3C//DTD SVG 1.1//EN" "http://www.w3.org/Graphics/SVG/1.1/DTD/svg11.dtd">
<svg version="1.1" id="Layer_1" xmlns="http://www.w3.org/2000/svg" xmlns:xlink="http://www.w3.org/1999/xlink" x="0px" y="0px"
	 width="283.46px" height="283.46px" viewBox="0 0 283.46 283.46" enable-background="new 0 0 283.46 283.46" xml:space="preserve">
<path fill="none" stroke="#FF6200" stroke-width="14" stroke-linecap="round" stroke-miterlimit="10" d="M242.795,155.52
	l-131.066,20.913c-8.406,1.341-16.407-4.08-18.28-12.385L72.744,72.162c-2.274-10.088,5.396-19.679,15.739-19.679h170.593
	c8.909,0,16.134,7.222,16.134,16.132v48.909C275.209,136.436,261.468,152.541,242.795,155.52z"/>
<path fill="none" stroke="#FF6200" stroke-width="14" stroke-linecap="round" stroke-miterlimit="10" d="M229.659,214.121H104.26
	c-10.78,0-18.478-10.442-15.284-20.741l4.879-15.731"/>
<path fill="none" stroke="#FF6200" stroke-width="14" stroke-linecap="round" stroke-miterlimit="10" d="M75.345,83.71
	L64.932,37.489c-1.251-5.549-5.297-10.045-10.682-11.874L7.595,9.783"/>
<path fill="#FF6200" d="M229.636,224.356c6.263,0,11.338,5.076,11.338,11.338c0,6.26-5.075,11.338-11.338,11.338
	s-11.337-5.078-11.337-11.338C218.299,229.432,223.374,224.356,229.636,224.356 M229.636,212.748
	c-12.653,0-22.948,10.292-22.948,22.946c0,12.65,10.295,22.945,22.948,22.945s22.948-10.295,22.948-22.945
	C252.584,223.04,242.29,212.748,229.636,212.748"/>
<path fill="#FF6200" d="M121.616,224.356c6.26,0,11.335,5.076,11.335,11.338c0,6.26-5.075,11.338-11.335,11.338
	c-6.262,0-11.337-5.078-11.337-11.338C110.279,229.432,115.354,224.356,121.616,224.356 M121.616,212.748
	c-12.652,0-22.948,10.292-22.948,22.946c0,12.65,10.295,22.945,22.948,22.945c12.652,0,22.944-10.295,22.944-22.945
	C144.56,223.04,134.268,212.748,121.616,212.748"/>
</svg>
