<?xml version="1.0" encoding="utf-8"?>
<!-- Generator: Adobe Illustrator 15.1.0, SVG Export Plug-In . SVG Version: 6.00 Build 0)  -->
<!DOCTYPE svg PUBLIC "-//W3C//DTD SVG 1.1//EN" "http://www.w3.org/Graphics/SVG/1.1/DTD/svg11.dtd">
<svg version="1.1" id="Layer_1" xmlns="http://www.w3.org/2000/svg" xmlns:xlink="http://www.w3.org/1999/xlink" x="0px" y="0px"
	 width="283.46px" height="283.46px" viewBox="0 0 283.46 283.46" enable-background="new 0 0 283.46 283.46" xml:space="preserve">
<g>
	<path fill="none" stroke="#FF6200" stroke-width="14" stroke-linecap="round" stroke-miterlimit="10" d="M238.025,51.243h28.182
		c4.989,0,9.037,4.046,9.037,9.039v189.29c0,4.99-4.048,9.04-9.037,9.04H18.428c-4.99,0-9.038-4.05-9.038-9.04V60.281
		c0-4.992,4.047-9.039,9.038-9.039H43.89"/>
	
		<line fill="none" stroke="#FF6200" stroke-width="14" stroke-linecap="round" stroke-miterlimit="10" x1="148.929" y1="51.243" x2="214.354" y2="51.243"/>
	
		<line fill="none" stroke="#FF6200" stroke-width="14" stroke-linecap="round" stroke-miterlimit="10" x1="69.174" y1="51.243" x2="124.433" y2="51.243"/>
	
		<line fill="none" stroke="#FF6200" stroke-width="14" stroke-linecap="round" stroke-miterlimit="10" x1="13.381" y1="106.289" x2="273.556" y2="106.289"/>
	<path fill="none" stroke="#FF6200" stroke-width="14" stroke-linecap="round" stroke-miterlimit="10" d="M55.455,79.646
		c15.497-15.5,15.497-40.584,0-56.083"/>
	<path fill="none" stroke="#FF6200" stroke-width="14" stroke-linecap="round" stroke-miterlimit="10" d="M136.506,79.646
		c15.499-15.5,15.499-40.584,0-56.083"/>
	<path fill="none" stroke="#FF6200" stroke-width="14" stroke-linecap="round" stroke-miterlimit="10" d="M225.415,79.646
		c15.498-15.5,15.498-40.584,0-56.083"/>
</g>
<path fill="none" stroke="#FF6200" stroke-width="14" stroke-linecap="round" stroke-miterlimit="10" d="M155.816,148.746h13.926
	c0.231,0,0.38,0.28,0.268,0.51l-0.081,57.813h-13.386"/>
<line fill="none" stroke="#FF6200" stroke-width="14" stroke-linecap="round" stroke-miterlimit="10" x1="182.955" y1="207.069" x2="169.929" y2="207.069"/>
<path fill="none" stroke="#FF6200" stroke-width="14" stroke-linecap="round" stroke-miterlimit="10" d="M102.033,200.516
	c2.477,4.384,8.67,7.124,13.18,7.124c11.08,0,19.908-1.549,19.908-14.15c0-15.659-13.344-15.659-20.132-15.659"/>
<path fill="none" stroke="#FF6200" stroke-width="14" stroke-linecap="round" stroke-miterlimit="10" d="M113.92,177.829
	c7.857,0,20.134,0,20.134-15.663c0-10.903-5.853-14.154-20.699-14.154c-4.078,0-9.308,2.622-11.376,6.362"/>
</svg>
