<?xml version="1.0" encoding="utf-8"?>
<!-- Generator: Adobe Illustrator 15.1.0, SVG Export Plug-In . SVG Version: 6.00 Build 0)  -->
<!DOCTYPE svg PUBLIC "-//W3C//DTD SVG 1.1//EN" "http://www.w3.org/Graphics/SVG/1.1/DTD/svg11.dtd">
<svg version="1.1" id="Layer_1" xmlns="http://www.w3.org/2000/svg" xmlns:xlink="http://www.w3.org/1999/xlink" x="0px" y="0px"
	 width="283.46px" height="283.46px" viewBox="0 0 283.46 283.46" enable-background="new 0 0 283.46 283.46" xml:space="preserve">
<path fill="none" stroke="#FF6200" stroke-width="14" stroke-linecap="round" stroke-miterlimit="10" d="M182.609,191.833v72.55
	c0,5.308-4.301,9.61-9.61,9.61H56.429c-5.307,0.001-9.609-4.303-9.61-9.61V22.665c0.001-5.306,4.304-9.61,9.61-9.61l107.196,0.001"
	/>
<line fill="none" stroke="#FF6200" stroke-width="14" stroke-linecap="round" stroke-miterlimit="10" x1="182.609" y1="205.564" x2="47.726" y2="205.564"/>
<line fill="none" stroke="#FF6200" stroke-width="14" stroke-linecap="round" stroke-miterlimit="10" x1="127.648" y1="43.099" x2="47.135" y2="43.099"/>
<circle fill="none" stroke="#FF6200" stroke-width="14" stroke-linecap="round" stroke-miterlimit="10" cx="115.817" cy="239.794" r="14.191"/>
<path fill="none" stroke="#FF6200" stroke-width="14" stroke-linecap="round" stroke-linejoin="round" stroke-miterlimit="10" d="
	M231.262,9.426c0,0,13.338,59.502-46.179,132.096l-21.167,7.992l-21.103-14.922l-0.766-0.542l-20.375-14.409l-0.227-23.124
	c47.22-81.588,109.151-87.561,109.151-87.561"/>
<circle fill="none" stroke="#FF6200" stroke-width="14" stroke-linecap="round" stroke-linejoin="round" stroke-miterlimit="10" cx="182.559" cy="77.548" r="14.223"/>
<path fill="none" stroke="#FF6200" stroke-width="14" stroke-linecap="round" stroke-linejoin="round" stroke-miterlimit="10" d="
	M202.884,119.762c14.568,10.303,11.902,36.04-1.633,55.178c0,0,0.04-19.808-15.855-33.538
	C188.732,136.288,202.884,119.762,202.884,119.762z"/>
<path fill="none" stroke="#FF6200" stroke-width="14" stroke-linecap="round" stroke-linejoin="round" stroke-miterlimit="10" d="
	M137.439,72.276c-14.569-10.303-38.201,0.659-51.736,19.798c0,0,18.661-6.637,36.904,3.775
	C126.318,91,137.439,72.276,137.439,72.276z"/>
<line fill="none" stroke="#FF6200" stroke-width="14" stroke-linecap="round" stroke-linejoin="round" stroke-miterlimit="10" x1="117.988" y1="138.849" x2="99.043" y2="165.637"/>
<line fill="none" stroke="#FF6200" stroke-width="14" stroke-linecap="round" stroke-linejoin="round" stroke-miterlimit="10" x1="131.765" y1="148.592" x2="104.159" y2="187.626"/>
<line fill="none" stroke="#FF6200" stroke-width="14" stroke-linecap="round" stroke-linejoin="round" stroke-miterlimit="10" x1="145.541" y1="158.335" x2="135.256" y2="172.878"/>
</svg>
