<?xml version="1.0" encoding="utf-8"?>
<!-- Generator: Adobe Illustrator 15.1.0, SVG Export Plug-In . SVG Version: 6.00 Build 0)  -->
<!DOCTYPE svg PUBLIC "-//W3C//DTD SVG 1.1//EN" "http://www.w3.org/Graphics/SVG/1.1/DTD/svg11.dtd">
<svg version="1.1" id="Layer_1" xmlns="http://www.w3.org/2000/svg" xmlns:xlink="http://www.w3.org/1999/xlink" x="0px" y="0px"
	 width="283.46px" height="283.46px" viewBox="0 0 283.46 283.46" enable-background="new 0 0 283.46 283.46" xml:space="preserve">
<path fill="none" stroke="#FF6200" stroke-width="14" stroke-linecap="round" stroke-miterlimit="10" d="M264.802,275.23H18.066
	c-5.433,0-9.836-7.055-9.836-15.761V21.99c0-8.703,4.404-15.76,9.836-15.76h246.736c5.431,0,9.837,7.058,9.837,15.76v237.479
	C274.639,268.175,270.233,275.23,264.802,275.23z"/>
<line fill="none" stroke="#FF6200" stroke-width="14" stroke-linecap="round" stroke-miterlimit="10" x1="246.451" y1="34.571" x2="246.457" y2="33.308"/>
<line fill="none" stroke="#FF6200" stroke-width="14" stroke-linecap="round" stroke-miterlimit="10" x1="225.448" y1="34.571" x2="225.453" y2="33.308"/>
<line fill="none" stroke="#FF6200" stroke-width="14" stroke-linecap="round" stroke-miterlimit="10" x1="204.444" y1="34.571" x2="204.45" y2="33.308"/>
<line fill="none" stroke="#FF6200" stroke-width="14" stroke-linecap="round" stroke-miterlimit="10" x1="35.23" y1="64.554" x2="250.448" y2="64.707"/>
<line fill="none" stroke="#FF6200" stroke-width="14" stroke-linecap="round" stroke-linejoin="round" stroke-miterlimit="10" x1="203.696" y1="220.817" x2="76.898" y2="220.817"/>
<g>
	
		<line fill="none" stroke="#FF6200" stroke-width="14" stroke-linecap="round" stroke-linejoin="round" stroke-miterlimit="10" x1="184.749" y1="156.457" x2="184.749" y2="202.616"/>
	
		<line fill="none" stroke="#FF6200" stroke-width="14" stroke-linecap="round" stroke-linejoin="round" stroke-miterlimit="10" x1="95.845" y1="156.457" x2="95.845" y2="202.616"/>
	
		<line fill="none" stroke="#FF6200" stroke-width="14" stroke-linecap="round" stroke-linejoin="round" stroke-miterlimit="10" x1="126.452" y1="156.457" x2="126.452" y2="202.616"/>
	
		<line fill="none" stroke="#FF6200" stroke-width="14" stroke-linecap="round" stroke-linejoin="round" stroke-miterlimit="10" x1="155.597" y1="156.457" x2="155.597" y2="202.616"/>
</g>
<polygon fill="none" stroke="#FF6200" stroke-width="14" stroke-linecap="round" stroke-linejoin="round" stroke-miterlimit="10" points="
	199.324,135.395 81.271,135.395 140.296,104.788 "/>
</svg>
